<svg enable-background="new 0 0 830 465.275" height="465.275" viewBox="0 0 830 465.275" width="830" xmlns="http://www.w3.org/2000/svg" xmlns:xlink="http://www.w3.org/1999/xlink"><clipPath id="a"><path d="m788.667 116.173h-747.002l-7.06-9.173h761.122z"/></clipPath><clipPath id="b"><path d="m475.096 277.586h-119.273l-4.121-9.172h127.516z"/></clipPath><clipPath id="c"><path d="m391.462 304.104h47.075v20.305h-47.075z"/></clipPath><clipPath id="d"><path d="m-330.622 494.07c3.483-4.28.97-8.301.97-8.301-5.267-1.2-6.633-4.885-6.633-7.899h19.367c0 2.951-1.684 6.546-6.525 7.821 0 0-1.491 6.082.862 8.379"/></clipPath><path d="m44.833 128.173h740.667v310.827h-740.667z" fill="#fcdbdc"/><path d="m762.103 412.667h23.397v14.333h-23.397z" fill="#f7a2a3"/><path d="m358 284.159h114v142.841h-114z" fill="#f7a2a3"/><path d="m358 277.313h114v6.846h-114z" fill="#7b3f48"/><path d="m360.592 274.307h3.945v8.202h-3.945z" fill="#fcdbdc"/><path d="m372.354 274.307h3.945v8.202h-3.945z" fill="#fcdbdc"/><path d="m384.115 274.307h3.945v8.202h-3.945z" fill="#fcdbdc"/><path d="m395.877 274.307h3.945v8.202h-3.945z" fill="#fcdbdc"/><path d="m407.638 274.307h3.945v8.202h-3.945z" fill="#fcdbdc"/><path d="m419.4 274.307h3.945v8.202h-3.945z" fill="#fcdbdc"/><path d="m431.161 274.307h3.945v8.202h-3.945z" fill="#fcdbdc"/><path d="m442.923 274.307h3.945v8.202h-3.945z" fill="#fcdbdc"/><path d="m454.685 274.307h3.945v8.202h-3.945z" fill="#fcdbdc"/><path d="m466.446 274.307h3.945v8.202h-3.945z" fill="#fcdbdc"/><path d="m125.422 156.75h60.426v15.583h-60.426z" fill="#f7a2a3"/><path d="m44.833 116.401h740.667v11.654h-740.667z" fill="#7b3f48"/><path d="m785.5 116.173h-740.667l148.833-66.066h443z" fill="#004f55"/><path d="m425.011 31.498h5.619v13.963h-5.619z" fill="#96a7ad"/><path d="m415.441 31.498h5.619v13.963h-5.619z" fill="#96a7ad"/><path d="m405.516 31.498h5.619v13.963h-5.619z" fill="#96a7ad"/><path d="m395.236 31.498h5.619v13.963h-5.619z" fill="#96a7ad"/><path d="m388.136 40.74h49.237v4.721h-49.237z" fill="#004f55"/><path d="m234.151 31.498h5.619v13.963h-5.619z" fill="#96a7ad"/><path d="m223.871 31.498h5.619v13.963h-5.619z" fill="#96a7ad"/><path d="m216.771 40.74h49.237v4.721h-49.237z" fill="#004f55"/><path d="m601.199 31.498h5.619v13.963h-5.619z" fill="#96a7ad"/><path d="m591.628 31.498h5.619v13.963h-5.619z" fill="#96a7ad"/><path d="m581.703 31.498h5.619v13.963h-5.619z" fill="#96a7ad"/><path d="m571.424 31.498h5.619v13.963h-5.619z" fill="#96a7ad"/><path d="m564.324 40.74h49.237v4.721h-49.237z" fill="#004f55"/><g fill="#fcdbdc"><path d="m352.111 111.284h5.619v13.963h-5.619z"/><path d="m368.861 111.284h5.619v13.963h-5.619z"/><path d="m385.611 111.284h5.619v13.963h-5.619z"/><path d="m402.361 111.284h5.619v13.963h-5.619z"/><path d="m419.111 111.284h5.619v13.963h-5.619z"/><path d="m435.861 111.284h5.619v13.963h-5.619z"/><path d="m452.611 111.284h5.619v13.963h-5.619z"/><path d="m469.361 111.284h5.619v13.963h-5.619z"/><path d="m486.111 111.284h5.619v13.963h-5.619z"/><path d="m502.861 111.284h5.619v13.963h-5.619z"/><path d="m519.611 111.284h5.619v13.963h-5.619z"/><path d="m536.361 111.284h5.619v13.963h-5.619z"/><path d="m553.111 111.284h5.619v13.963h-5.619z"/><path d="m569.861 111.284h5.619v13.963h-5.619z"/><path d="m586.611 111.284h5.619v13.963h-5.619z"/><path d="m603.361 111.284h5.619v13.963h-5.619z"/><path d="m84.111 111.284h5.619v13.963h-5.619z"/><path d="m100.861 111.284h5.619v13.963h-5.619z"/><path d="m117.611 111.284h5.619v13.963h-5.619z"/><path d="m134.361 111.284h5.619v13.963h-5.619z"/><path d="m151.111 111.284h5.619v13.963h-5.619z"/><path d="m167.861 111.284h5.619v13.963h-5.619z"/><path d="m184.611 111.284h5.619v13.963h-5.619z"/><path d="m201.361 111.284h5.619v13.963h-5.619z"/><path d="m218.111 111.284h5.619v13.963h-5.619z"/><path d="m234.861 111.284h5.619v13.963h-5.619z"/><path d="m251.611 111.284h5.619v13.963h-5.619z"/><path d="m268.361 111.284h5.619v13.963h-5.619z"/><path d="m285.111 111.284h5.619v13.963h-5.619z"/><path d="m301.861 111.284h5.619v13.963h-5.619z"/><path d="m318.611 111.284h5.619v13.963h-5.619z"/><path d="m335.361 111.284h5.619v13.963h-5.619z"/><path d="m50.611 111.284h5.619v13.963h-5.619z"/><path d="m67.361 111.284h5.619v13.963h-5.619z"/><path d="m620.111 111.284h5.619v13.963h-5.619z"/><path d="m636.861 111.284h5.619v13.963h-5.619z"/><path d="m653.611 111.284h5.619v13.963h-5.619z"/><path d="m670.361 111.284h5.619v13.963h-5.619z"/><path d="m687.111 111.284h5.619v13.963h-5.619z"/><path d="m703.861 111.284h5.619v13.963h-5.619z"/><path d="m720.611 111.284h5.619v13.963h-5.619z"/><path d="m737.361 111.284h5.619v13.963h-5.619z"/><path d="m754.111 111.284h5.619v13.963h-5.619z"/><path d="m770.861 111.284h5.619v13.963h-5.619z"/></g><path d="m193.666 45.056h443v5.284h-443z" fill="#004f55"/><path d="m193.666 47.25h443" fill="none" stroke="#96a7ad" stroke-miterlimit="10"/><path d="m193.666 44.698h443" fill="none" stroke="#96a7ad" stroke-miterlimit="10"/><path d="m193.666 49.698h443" fill="none" stroke="#96a7ad" stroke-miterlimit="10"/><g clip-path="url(#a)"><path d="m788.667 116.173h-747.002l-7.06-9.173h761.122z" fill="#96a7ad"/></g><g clip-path="url(#a)" fill="none" stroke="#004f55" stroke-miterlimit="10"><path d="m30.666 113.25h784.667"/><path d="m30.666 110.698h784.667"/><path d="m30.666 115.792h784.667"/><path d="m30.666 113.239h784.667"/></g><path d="m44.833 130.333h23.487v11.599h-23.487z" fill="#f7a2a3"/><path d="m44.833 144.47h14.67v11.599h-14.67z" fill="#f7a2a3"/><path d="m44.833 158.606h23.487v11.599h-23.487z" fill="#f7a2a3"/><path d="m44.833 172.742h14.67v11.599h-14.67z" fill="#f7a2a3"/><path d="m44.971 186.878h23.487v11.599h-23.487z" fill="#f7a2a3"/><path d="m44.919 201.015h14.67v11.599h-14.67z" fill="#f7a2a3"/><path d="m44.971 215.151h23.487v11.599h-23.487z" fill="#f7a2a3"/><path d="m44.919 229.287h14.67v11.599h-14.67z" fill="#f7a2a3"/><path d="m44.902 243.423h23.487v11.599h-23.487z" fill="#f7a2a3"/><path d="m44.876 257.56h14.67v11.599h-14.67z" fill="#f7a2a3"/><path d="m44.902 271.696h23.487v11.599h-23.487z" fill="#f7a2a3"/><path d="m44.963 285.832h14.67v11.599h-14.67z" fill="#f7a2a3"/><path d="m45.041 299.968h23.487v11.599h-23.487z" fill="#f7a2a3"/><path d="m44.963 314.104h14.67v11.599h-14.67z" fill="#f7a2a3"/><path d="m45.041 328.241h23.487v11.599h-23.487z" fill="#f7a2a3"/><path d="m44.898 342.377h14.67v11.599h-14.67z" fill="#f7a2a3"/><path d="m44.937 356.513h23.487v11.599h-23.487z" fill="#f7a2a3"/><path d="m44.898 370.649h14.67v11.599h-14.67z" fill="#f7a2a3"/><path d="m45.075 384.786h23.487v11.599h-23.487z" fill="#f7a2a3"/><path d="m45.065 398.922h14.503v11.599h-14.503z" fill="#f7a2a3"/><path d="m44.999 412.667h23.397v14.333h-23.397z" fill="#f7a2a3"/><path d="m762.177 130.333h23.322v11.599h-23.322z" fill="#f7a2a3"/><path d="m770.829 144.47h14.67v11.599h-14.67z" fill="#f7a2a3"/><path d="m762.177 158.606h23.322v11.599h-23.322z" fill="#f7a2a3"/><path d="m770.829 172.742h14.67v11.599h-14.67z" fill="#f7a2a3"/><path d="m762.04 186.878h23.322v11.599h-23.322z" fill="#f7a2a3"/><path d="m770.743 201.015h14.67v11.599h-14.67z" fill="#f7a2a3"/><path d="m762.04 215.151h23.322v11.599h-23.322z" fill="#f7a2a3"/><path d="m770.743 229.287h14.67v11.599h-14.67z" fill="#f7a2a3"/><path d="m762.109 243.423h23.322v11.599h-23.322z" fill="#f7a2a3"/><path d="m770.786 257.56h14.67v11.599h-14.67z" fill="#f7a2a3"/><path d="m762.109 271.696h23.322v11.599h-23.322z" fill="#f7a2a3"/><path d="m770.7 285.832h14.67v11.599h-14.67z" fill="#f7a2a3"/><path d="m761.971 299.968h23.322v11.599h-23.322z" fill="#f7a2a3"/><path d="m770.7 314.104h14.67v11.599h-14.67z" fill="#f7a2a3"/><path d="m761.971 328.241h23.322v11.599h-23.322z" fill="#f7a2a3"/><path d="m770.765 342.377h14.67v11.599h-14.67z" fill="#f7a2a3"/><path d="m762.074 356.513h23.322v11.599h-23.322z" fill="#f7a2a3"/><path d="m770.765 370.649h14.67v11.599h-14.67z" fill="#f7a2a3"/><path d="m761.937 384.786h23.322v11.599h-23.322z" fill="#f7a2a3"/><path d="m770.765 398.922h14.503v11.599h-14.503z" fill="#f7a2a3"/><path d="m135.611 167h40.014v79.25h-40.014z" fill="#fff"/><path d="m150.562 169.625h10.19v15.938h-10.19z" fill="#004f55"/><path d="m138.5 169.625h10.19v15.938h-10.19z" fill="#004f55"/><path d="m162.624 169.625h10.19v15.938h-10.19z" fill="#004f55"/><path d="m150.562 187.229h10.19v15.938h-10.19z" fill="#004f55"/><path d="m138.5 187.229h10.19v15.938h-10.19z" fill="#004f55"/><path d="m162.624 187.229h10.19v15.938h-10.19z" fill="#004f55"/><path d="m150.562 207h10.19v15.938h-10.19z" fill="#004f55"/><path d="m138.5 207h10.19v15.938h-10.19z" fill="#004f55"/><path d="m162.624 207h10.19v15.938h-10.19z" fill="#004f55"/><path d="m150.562 224.604h10.19v15.938h-10.19z" fill="#004f55"/><path d="m138.5 224.604h10.19v15.938h-10.19z" fill="#004f55"/><path d="m162.624 224.604h10.19v15.938h-10.19z" fill="#004f55"/><path d="m128.967 245.25h53.336v5.25h-53.336z" fill="#7b3f48"/><path d="m175.667 174.667h6.635v11.68h-6.635z" fill="#f7a2a3"/><path d="m175.688 188.901h10.19v11.68h-10.19z" fill="#f7a2a3"/><path d="m175.667 203.136h6.635v11.68h-6.635z" fill="#f7a2a3"/><path d="m175.658 217.371h10.19v11.68h-10.19z" fill="#f7a2a3"/><path d="m175.667 231.32h6.635v11.68h-6.635z" fill="#f7a2a3"/><path d="m128.967 174.809h6.635v11.68h-6.635z" fill="#f7a2a3"/><path d="m125.392 189.044h10.19v11.68h-10.19z" fill="#f7a2a3"/><path d="m128.967 203.279h6.635v11.68h-6.635z" fill="#f7a2a3"/><path d="m125.422 217.513h10.19v11.68h-10.19z" fill="#f7a2a3"/><path d="m128.967 231.463h6.635v11.68h-6.635z" fill="#f7a2a3"/><path d="m278.422 156.75h60.426v15.583h-60.426z" fill="#f7a2a3"/><path d="m288.611 167h40.014v79.25h-40.014z" fill="#fff"/><path d="m303.562 169.625h10.19v15.938h-10.19z" fill="#004f55"/><path d="m291.5 169.625h10.19v15.938h-10.19z" fill="#004f55"/><path d="m315.624 169.625h10.19v15.938h-10.19z" fill="#004f55"/><path d="m303.562 187.229h10.19v15.938h-10.19z" fill="#004f55"/><path d="m291.5 187.229h10.19v15.938h-10.19z" fill="#004f55"/><path d="m315.624 187.229h10.19v15.938h-10.19z" fill="#004f55"/><path d="m303.562 207h10.19v15.938h-10.19z" fill="#004f55"/><path d="m291.5 207h10.19v15.938h-10.19z" fill="#004f55"/><path d="m315.624 207h10.19v15.938h-10.19z" fill="#004f55"/><path d="m303.562 224.604h10.19v15.938h-10.19z" fill="#004f55"/><path d="m291.5 224.604h10.19v15.938h-10.19z" fill="#004f55"/><path d="m315.624 224.604h10.19v15.938h-10.19z" fill="#004f55"/><path d="m281.967 245.25h53.336v5.25h-53.336z" fill="#7b3f48"/><path d="m328.667 174.667h6.635v11.68h-6.635z" fill="#f7a2a3"/><path d="m328.688 188.901h10.19v11.68h-10.19z" fill="#f7a2a3"/><path d="m328.667 203.136h6.635v11.68h-6.635z" fill="#f7a2a3"/><path d="m328.658 217.371h10.19v11.68h-10.19z" fill="#f7a2a3"/><path d="m328.667 231.32h6.635v11.68h-6.635z" fill="#f7a2a3"/><path d="m281.967 174.809h6.635v11.68h-6.635z" fill="#f7a2a3"/><path d="m278.392 189.044h10.19v11.68h-10.19z" fill="#f7a2a3"/><path d="m281.967 203.279h6.635v11.68h-6.635z" fill="#f7a2a3"/><path d="m278.422 217.513h10.19v11.68h-10.19z" fill="#f7a2a3"/><path d="m281.967 231.463h6.635v11.68h-6.635z" fill="#f7a2a3"/><path d="m385.422 156.75h60.426v15.583h-60.426z" fill="#f7a2a3"/><path d="m395.611 167h40.014v79.25h-40.014z" fill="#fff"/><path d="m410.562 169.625h10.19v15.938h-10.19z" fill="#004f55"/><path d="m398.5 169.625h10.19v15.938h-10.19z" fill="#004f55"/><path d="m422.624 169.625h10.19v15.938h-10.19z" fill="#004f55"/><path d="m410.562 187.229h10.19v15.938h-10.19z" fill="#004f55"/><path d="m398.5 187.229h10.19v15.938h-10.19z" fill="#004f55"/><path d="m422.624 187.229h10.19v15.938h-10.19z" fill="#004f55"/><path d="m410.562 207h10.19v15.938h-10.19z" fill="#004f55"/><path d="m398.5 207h10.19v15.938h-10.19z" fill="#004f55"/><path d="m422.624 207h10.19v15.938h-10.19z" fill="#004f55"/><path d="m410.562 224.604h10.19v15.938h-10.19z" fill="#004f55"/><path d="m398.5 224.604h10.19v15.938h-10.19z" fill="#004f55"/><path d="m422.624 224.604h10.19v15.938h-10.19z" fill="#004f55"/><path d="m388.967 245.25h53.336v5.25h-53.336z" fill="#7b3f48"/><path d="m435.667 174.667h6.635v11.68h-6.635z" fill="#f7a2a3"/><path d="m435.688 188.901h10.19v11.68h-10.19z" fill="#f7a2a3"/><path d="m435.667 203.136h6.635v11.68h-6.635z" fill="#f7a2a3"/><path d="m435.658 217.371h10.19v11.68h-10.19z" fill="#f7a2a3"/><path d="m435.667 231.32h6.635v11.68h-6.635z" fill="#f7a2a3"/><path d="m388.967 174.809h6.635v11.68h-6.635z" fill="#f7a2a3"/><path d="m385.392 189.044h10.19v11.68h-10.19z" fill="#f7a2a3"/><path d="m388.967 203.279h6.635v11.68h-6.635z" fill="#f7a2a3"/><path d="m385.422 217.513h10.19v11.68h-10.19z" fill="#f7a2a3"/><path d="m388.967 231.463h6.635v11.68h-6.635z" fill="#f7a2a3"/><path d="m645.422 156.75h60.426v15.583h-60.426z" fill="#f7a2a3"/><path d="m655.644 167h40.014v79.25h-40.014z" fill="#fff"/><path d="m670.517 169.625h10.19v15.938h-10.19z" fill="#004f55"/><path d="m682.579 169.625h10.19v15.938h-10.19z" fill="#004f55"/><path d="m658.455 169.625h10.19v15.938h-10.19z" fill="#004f55"/><path d="m670.517 187.229h10.19v15.938h-10.19z" fill="#004f55"/><path d="m682.579 187.229h10.19v15.938h-10.19z" fill="#004f55"/><path d="m658.455 187.229h10.19v15.938h-10.19z" fill="#004f55"/><path d="m670.517 207h10.19v15.938h-10.19z" fill="#004f55"/><path d="m682.579 207h10.19v15.938h-10.19z" fill="#004f55"/><path d="m658.455 207h10.19v15.938h-10.19z" fill="#004f55"/><path d="m670.517 224.604h10.19v15.938h-10.19z" fill="#004f55"/><path d="m682.579 224.604h10.19v15.938h-10.19z" fill="#004f55"/><path d="m658.455 224.604h10.19v15.938h-10.19z" fill="#004f55"/><path d="m648.967 245.25h53.336v5.25h-53.336z" fill="#7b3f48"/><path d="m648.967 174.667h6.635v11.68h-6.635z" fill="#f7a2a3"/><path d="m645.392 188.901h10.19v11.68h-10.19z" fill="#f7a2a3"/><path d="m648.967 203.136h6.635v11.68h-6.635z" fill="#f7a2a3"/><path d="m645.422 217.371h10.19v11.68h-10.19z" fill="#f7a2a3"/><path d="m648.967 231.32h6.635v11.68h-6.635z" fill="#f7a2a3"/><path d="m695.667 174.809h6.635v11.68h-6.635z" fill="#f7a2a3"/><path d="m695.688 189.044h10.19v11.68h-10.19z" fill="#f7a2a3"/><path d="m695.667 203.279h6.635v11.68h-6.635z" fill="#f7a2a3"/><path d="m695.658 217.513h10.19v11.68h-10.19z" fill="#f7a2a3"/><path d="m695.667 231.463h6.635v11.68h-6.635z" fill="#f7a2a3"/><path d="m492.422 156.75h60.426v15.583h-60.426z" fill="#f7a2a3"/><path d="m502.644 167h40.014v79.25h-40.014z" fill="#fff"/><path d="m517.517 169.625h10.19v15.938h-10.19z" fill="#004f55"/><path d="m529.579 169.625h10.19v15.938h-10.19z" fill="#004f55"/><path d="m505.455 169.625h10.19v15.938h-10.19z" fill="#004f55"/><path d="m517.517 187.229h10.19v15.938h-10.19z" fill="#004f55"/><path d="m529.579 187.229h10.19v15.938h-10.19z" fill="#004f55"/><path d="m505.455 187.229h10.19v15.938h-10.19z" fill="#004f55"/><path d="m517.517 207h10.19v15.938h-10.19z" fill="#004f55"/><path d="m529.579 207h10.19v15.938h-10.19z" fill="#004f55"/><path d="m505.455 207h10.19v15.938h-10.19z" fill="#004f55"/><path d="m517.517 224.604h10.19v15.938h-10.19z" fill="#004f55"/><path d="m529.579 224.604h10.19v15.938h-10.19z" fill="#004f55"/><path d="m505.455 224.604h10.19v15.938h-10.19z" fill="#004f55"/><path d="m495.967 245.25h53.336v5.25h-53.336z" fill="#7b3f48"/><path d="m495.967 174.667h6.635v11.68h-6.635z" fill="#f7a2a3"/><path d="m492.392 188.901h10.19v11.68h-10.19z" fill="#f7a2a3"/><path d="m495.967 203.136h6.635v11.68h-6.635z" fill="#f7a2a3"/><path d="m492.422 217.371h10.19v11.68h-10.19z" fill="#f7a2a3"/><path d="m495.967 231.32h6.635v11.68h-6.635z" fill="#f7a2a3"/><path d="m542.667 174.809h6.635v11.68h-6.635z" fill="#f7a2a3"/><path d="m542.688 189.044h10.19v11.68h-10.19z" fill="#f7a2a3"/><path d="m542.667 203.279h6.635v11.68h-6.635z" fill="#f7a2a3"/><path d="m542.658 217.513h10.19v11.68h-10.19z" fill="#f7a2a3"/><path d="m542.667 231.463h6.635v11.68h-6.635z" fill="#f7a2a3"/><g clip-path="url(#b)"><path d="m478.035 277.586h-125.151l-1.182-9.172h127.516z" fill="#96a7ad"/></g><g clip-path="url(#b)" fill="none" stroke="#004f55" stroke-miterlimit="10"><path d="m351.042 274.664h131.46"/><path d="m351.042 272.111h131.46"/><path d="m351.042 277.205h131.46"/><path d="m351.042 274.653h131.46"/></g><path d="m420.753 252.451h-10.191l-52.562 15.963h114z" fill="#004f55"/><path d="m376.299 298.5h77.402v128.5h-77.402z" fill="#96a7ad"/><path d="m356.167 410.667h21.833v16.333h-21.833z" fill="#f7a2a3"/><path d="m451.934 410.667h21.833v16.333h-21.833z" fill="#f7a2a3"/><path d="m358 410.188h18.299" fill="none" stroke="#7b3f48" stroke-miterlimit="10"/><path d="m358 378.395h18.299" fill="none" stroke="#7b3f48" stroke-miterlimit="10"/><path d="m358 394.32h18.299" fill="none" stroke="#7b3f48" stroke-miterlimit="10"/><path d="m358 362.527h18.299" fill="none" stroke="#7b3f48" stroke-miterlimit="10"/><path d="m358 346.66h18.299" fill="none" stroke="#7b3f48" stroke-miterlimit="10"/><path d="m358 314.867h18.299" fill="none" stroke="#7b3f48" stroke-miterlimit="10"/><path d="m358 330.793h18.299" fill="none" stroke="#7b3f48" stroke-miterlimit="10"/><path d="m358 299h18.299" fill="none" stroke="#7b3f48" stroke-miterlimit="10"/><path d="m453.701 410.188h18.299" fill="none" stroke="#7b3f48" stroke-miterlimit="10"/><path d="m453.701 378.395h18.299" fill="none" stroke="#7b3f48" stroke-miterlimit="10"/><path d="m453.701 394.32h18.299" fill="none" stroke="#7b3f48" stroke-miterlimit="10"/><path d="m453.701 362.527h18.299" fill="none" stroke="#7b3f48" stroke-miterlimit="10"/><path d="m453.701 346.66h18.299" fill="none" stroke="#7b3f48" stroke-miterlimit="10"/><path d="m453.701 314.867h18.299" fill="none" stroke="#7b3f48" stroke-miterlimit="10"/><path d="m453.701 330.793h18.299" fill="none" stroke="#7b3f48" stroke-miterlimit="10"/><path d="m453.701 299h18.299" fill="none" stroke="#7b3f48" stroke-miterlimit="10"/><path d="m388.191 301.699h53.619v125.301h-53.619z" fill="#fff"/><path d="m391.587 327.25h47.075v99.75h-47.075z" fill="#004f55"/><path d="m125.444 284.124h60.426v15.583h-60.426z" fill="#f7a2a3"/><path d="m175.69 302.041h6.635v11.68h-6.635z" fill="#f7a2a3"/><path d="m175.711 316.275h10.19v11.68h-10.19z" fill="#f7a2a3"/><path d="m175.69 330.51h6.635v11.68h-6.635z" fill="#f7a2a3"/><path d="m175.681 344.745h10.19v11.68h-10.19z" fill="#f7a2a3"/><path d="m175.69 358.694h6.635v11.68h-6.635z" fill="#f7a2a3"/><path d="m128.989 302.183h6.635v11.68h-6.635z" fill="#f7a2a3"/><path d="m125.414 316.418h10.19v11.68h-10.19z" fill="#f7a2a3"/><path d="m128.989 330.653h6.635v11.68h-6.635z" fill="#f7a2a3"/><path d="m125.444 344.887h10.19v11.68h-10.19z" fill="#f7a2a3"/><path d="m128.989 358.837h6.635v11.68h-6.635z" fill="#f7a2a3"/><path d="m135.634 293.952h40.014v102.074h-40.014z" fill="#fff"/><path d="m150.585 297.333h10.19v20.528h-10.19z" fill="#004f55"/><path d="m138.523 297.333h10.19v20.528h-10.19z" fill="#004f55"/><path d="m162.647 297.333h10.19v20.528h-10.19z" fill="#004f55"/><path d="m150.585 319.319h10.19v20.528h-10.19z" fill="#004f55"/><path d="m138.523 319.319h10.19v20.528h-10.19z" fill="#004f55"/><path d="m162.647 319.319h10.19v20.528h-10.19z" fill="#004f55"/><path d="m150.585 343.91h10.19v20.528h-10.19z" fill="#004f55"/><path d="m138.523 343.91h10.19v20.528h-10.19z" fill="#004f55"/><path d="m162.647 343.91h10.19v20.528h-10.19z" fill="#004f55"/><path d="m150.585 366.146h10.19v20.528h-10.19z" fill="#004f55"/><path d="m138.523 366.146h10.19v20.528h-10.19z" fill="#004f55"/><path d="m162.647 366.146h10.19v20.528h-10.19z" fill="#004f55"/><path d="m128.989 390.779h53.336v7.852h-53.336z" fill="#7b3f48"/><path d="m175.681 372.745h10.19v11.68h-10.19z" fill="#f7a2a3"/><path d="m125.444 372.887h10.19v11.68h-10.19z" fill="#f7a2a3"/><path d="m70.963 412.667h23.397v14.333h-23.397z" fill="#f7a2a3"/><path d="m96.927 412.667h23.397v14.333h-23.397z" fill="#f7a2a3"/><path d="m122.891 412.667h23.397v14.333h-23.397z" fill="#f7a2a3"/><path d="m148.855 412.667h23.397v14.333h-23.397z" fill="#f7a2a3"/><path d="m174.819 412.667h23.397v14.333h-23.397z" fill="#f7a2a3"/><path d="m200.783 412.667h23.397v14.333h-23.397z" fill="#f7a2a3"/><path d="m226.747 412.667h23.397v14.333h-23.397z" fill="#f7a2a3"/><path d="m252.711 412.667h23.397v14.333h-23.397z" fill="#f7a2a3"/><path d="m278.675 412.667h23.397v14.333h-23.397z" fill="#f7a2a3"/><path d="m304.639 412.667h23.397v14.333h-23.397z" fill="#f7a2a3"/><path d="m330.603 412.667h23.397v14.333h-23.397z" fill="#f7a2a3"/><path d="m476.499 412.667h23.397v14.333h-23.397z" fill="#f7a2a3"/><path d="m502.463 412.667h23.397v14.333h-23.397z" fill="#f7a2a3"/><path d="m528.427 412.667h23.397v14.333h-23.397z" fill="#f7a2a3"/><path d="m554.391 412.667h23.397v14.333h-23.397z" fill="#f7a2a3"/><path d="m580.355 412.667h23.397v14.333h-23.397z" fill="#f7a2a3"/><path d="m606.319 412.667h23.397v14.333h-23.397z" fill="#f7a2a3"/><path d="m632.283 412.667h23.397v14.333h-23.397z" fill="#f7a2a3"/><path d="m658.247 412.667h23.397v14.333h-23.397z" fill="#f7a2a3"/><path d="m684.211 412.667h23.397v14.333h-23.397z" fill="#f7a2a3"/><path d="m710.175 412.667h23.397v14.333h-23.397z" fill="#f7a2a3"/><path d="m736.139 412.667h23.397v14.333h-23.397z" fill="#f7a2a3"/><path d="m278.444 284.124h60.426v15.583h-60.426z" fill="#f7a2a3"/><path d="m328.69 302.041h6.635v11.68h-6.635z" fill="#f7a2a3"/><path d="m328.711 316.275h10.19v11.68h-10.19z" fill="#f7a2a3"/><path d="m328.69 330.51h6.635v11.68h-6.635z" fill="#f7a2a3"/><path d="m328.681 344.745h10.19v11.68h-10.19z" fill="#f7a2a3"/><path d="m328.69 358.694h6.635v11.68h-6.635z" fill="#f7a2a3"/><path d="m281.989 302.183h6.635v11.68h-6.635z" fill="#f7a2a3"/><path d="m278.414 316.418h10.19v11.68h-10.19z" fill="#f7a2a3"/><path d="m281.989 330.653h6.635v11.68h-6.635z" fill="#f7a2a3"/><path d="m278.444 344.887h10.19v11.68h-10.19z" fill="#f7a2a3"/><path d="m281.989 358.837h6.635v11.68h-6.635z" fill="#f7a2a3"/><path d="m288.634 293.952h40.014v102.074h-40.014z" fill="#fff"/><path d="m303.585 297.333h10.19v20.528h-10.19z" fill="#004f55"/><path d="m291.523 297.333h10.19v20.528h-10.19z" fill="#004f55"/><path d="m315.647 297.333h10.19v20.528h-10.19z" fill="#004f55"/><path d="m303.585 319.319h10.19v20.528h-10.19z" fill="#004f55"/><path d="m291.523 319.319h10.19v20.528h-10.19z" fill="#004f55"/><path d="m315.647 319.319h10.19v20.528h-10.19z" fill="#004f55"/><path d="m303.585 343.91h10.19v20.528h-10.19z" fill="#004f55"/><path d="m291.523 343.91h10.19v20.528h-10.19z" fill="#004f55"/><path d="m315.647 343.91h10.19v20.528h-10.19z" fill="#004f55"/><path d="m303.585 366.146h10.19v20.528h-10.19z" fill="#004f55"/><path d="m291.523 366.146h10.19v20.528h-10.19z" fill="#004f55"/><path d="m315.647 366.146h10.19v20.528h-10.19z" fill="#004f55"/><path d="m281.989 390.779h53.336v7.852h-53.336z" fill="#7b3f48"/><path d="m328.681 372.745h10.19v11.68h-10.19z" fill="#f7a2a3"/><path d="m278.444 372.887h10.19v11.68h-10.19z" fill="#f7a2a3"/><path d="m645.399 284.645h60.426v15.583h-60.426z" fill="#f7a2a3"/><path d="m648.944 302.562h6.635v11.68h-6.635z" fill="#f7a2a3"/><path d="m645.369 316.797h10.19v11.68h-10.19z" fill="#f7a2a3"/><path d="m648.944 331.031h6.635v11.68h-6.635z" fill="#f7a2a3"/><path d="m645.399 345.266h10.19v11.68h-10.19z" fill="#f7a2a3"/><path d="m648.944 359.216h6.635v11.68h-6.635z" fill="#f7a2a3"/><path d="m695.645 302.705h6.635v11.68h-6.635z" fill="#f7a2a3"/><path d="m695.666 316.939h10.19v11.68h-10.19z" fill="#f7a2a3"/><path d="m695.645 331.174h6.635v11.68h-6.635z" fill="#f7a2a3"/><path d="m695.636 345.409h10.19v11.68h-10.19z" fill="#f7a2a3"/><path d="m695.645 359.358h6.635v11.68h-6.635z" fill="#f7a2a3"/><path d="m655.622 294.473h40.014v102.074h-40.014z" fill="#fff"/><path d="m670.494 297.854h10.19v20.528h-10.19z" fill="#004f55"/><path d="m682.556 297.854h10.19v20.528h-10.19z" fill="#004f55"/><path d="m658.432 297.854h10.19v20.528h-10.19z" fill="#004f55"/><path d="m670.494 319.841h10.19v20.528h-10.19z" fill="#004f55"/><path d="m682.556 319.841h10.19v20.528h-10.19z" fill="#004f55"/><path d="m658.432 319.841h10.19v20.528h-10.19z" fill="#004f55"/><path d="m670.494 344.431h10.19v20.528h-10.19z" fill="#004f55"/><path d="m682.556 344.431h10.19v20.528h-10.19z" fill="#004f55"/><path d="m658.432 344.431h10.19v20.528h-10.19z" fill="#004f55"/><path d="m670.494 366.667h10.19v20.528h-10.19z" fill="#004f55"/><path d="m682.556 366.667h10.19v20.528h-10.19z" fill="#004f55"/><path d="m658.432 366.667h10.19v20.528h-10.19z" fill="#004f55"/><path d="m648.944 391.384h53.336v7.852h-53.336z" fill="#7b3f48"/><path d="m645.399 373.266h10.19v11.68h-10.19z" fill="#f7a2a3"/><path d="m695.636 373.409h10.19v11.68h-10.19z" fill="#f7a2a3"/><path d="m492.399 284.645h60.426v15.583h-60.426z" fill="#f7a2a3"/><path d="m495.944 302.562h6.635v11.68h-6.635z" fill="#f7a2a3"/><path d="m492.369 316.797h10.19v11.68h-10.19z" fill="#f7a2a3"/><path d="m495.944 331.031h6.635v11.68h-6.635z" fill="#f7a2a3"/><path d="m492.399 345.266h10.19v11.68h-10.19z" fill="#f7a2a3"/><path d="m495.944 359.216h6.635v11.68h-6.635z" fill="#f7a2a3"/><path d="m542.645 302.705h6.635v11.68h-6.635z" fill="#f7a2a3"/><path d="m542.666 316.939h10.19v11.68h-10.19z" fill="#f7a2a3"/><path d="m542.645 331.174h6.635v11.68h-6.635z" fill="#f7a2a3"/><path d="m542.636 345.409h10.19v11.68h-10.19z" fill="#f7a2a3"/><path d="m542.645 359.358h6.635v11.68h-6.635z" fill="#f7a2a3"/><path d="m502.622 294.473h40.014v102.074h-40.014z" fill="#fff"/><path d="m517.494 297.854h10.19v20.528h-10.19z" fill="#004f55"/><path d="m529.556 297.854h10.19v20.528h-10.19z" fill="#004f55"/><path d="m505.432 297.854h10.19v20.528h-10.19z" fill="#004f55"/><path d="m517.494 319.841h10.19v20.528h-10.19z" fill="#004f55"/><path d="m529.556 319.841h10.19v20.528h-10.19z" fill="#004f55"/><path d="m505.432 319.841h10.19v20.528h-10.19z" fill="#004f55"/><path d="m517.494 344.431h10.19v20.528h-10.19z" fill="#004f55"/><path d="m529.556 344.431h10.19v20.528h-10.19z" fill="#004f55"/><path d="m505.432 344.431h10.19v20.528h-10.19z" fill="#004f55"/><path d="m517.494 366.667h10.19v20.528h-10.19z" fill="#004f55"/><path d="m529.556 366.667h10.19v20.528h-10.19z" fill="#004f55"/><path d="m505.432 366.667h10.19v20.528h-10.19z" fill="#004f55"/><path d="m495.944 391.384h53.336v7.852h-53.336z" fill="#7b3f48"/><path d="m492.399 373.266h10.19v11.68h-10.19z" fill="#f7a2a3"/><path d="m542.636 373.409h10.19v11.68h-10.19z" fill="#f7a2a3"/><path clip-path="url(#c)" d="m391.462 304.104h47.075v20.305h-47.075z" fill="#004f55"/><g clip-path="url(#c)" fill="none" stroke="#96a7ad" stroke-miterlimit="10"><path d="m391.462 303.104 7.818 11.124-7.818 11.151"/><path d="m407.098 325.379-7.818-11.151 7.818-11.124 7.817 11.124z"/><path d="m422.733 325.379-7.818-11.151 7.818-11.124 7.818 11.124z"/><path d="m438.368 325.379-7.817-11.151 7.817-11.124"/></g><path d="m396.871 334.174h15.707v50.446h-15.707z" fill="none" stroke="#96a7ad" stroke-miterlimit="10"/><path d="m417.422 334.174h15.707v50.446h-15.707z" fill="none" stroke="#96a7ad" stroke-miterlimit="10"/><path d="m396.871 398.787h15.707v19.419h-15.707z" fill="none" stroke="#96a7ad" stroke-miterlimit="10"/><path d="m417.422 398.787h15.707v19.419h-15.707z" fill="none" stroke="#96a7ad" stroke-miterlimit="10"/><path d="m-347.423 564.802h18.811v40.326h-18.811z" fill="#7b3f48"/><path d="m-349.434 602.295h22.833v2.833h-22.833z" fill="#7b3f48"/><path d="m-348.429 599.461h20.822v2.833h-20.822z" fill="#7b3f48"/><path d="m-349.434 602.295h22.833" fill="none" stroke="#fcdbdc" stroke-miterlimit="10" stroke-width=".5"/><path d="m-348.429 599.461h20.822" fill="none" stroke="#fcdbdc" stroke-miterlimit="10" stroke-width=".5"/><path d="m-348.429 564.802h20.822v2.833h-20.822z" fill="#7b3f48"/><path d="m-327.607 567.635h-20.822" fill="none" stroke="#fcdbdc" stroke-miterlimit="10" stroke-width=".5"/><path d="m-326.655 477.275h11.136" fill="none" stroke="#96a7ad" stroke-linecap="round" stroke-miterlimit="10" stroke-width="2"/><path d="m-337.683 477.275h11.028" fill="none" stroke="#96a7ad" stroke-linecap="round" stroke-miterlimit="10" stroke-width="2"/><path d="m-331.927 494.07h10.652" fill="none" stroke="#96a7ad" stroke-linecap="round" stroke-miterlimit="10" stroke-width="2"/><path clip-path="url(#d)" d="m-330.622 494.07c2.689-2.625.97-8.301.97-8.301-5.267-1.2-6.633-4.885-6.633-7.899h19.367c0 2.951-1.684 6.546-6.525 7.821l-.02-.072c-1.765 2.609-1.471 6.154.882 8.451" fill="#96a7ad"/><path clip-path="url(#d)" d="m-337.845 478.957h22.326" fill="none" stroke="#004f55" stroke-miterlimit="10"/></svg>